<mxfile host="Electron" modified="2023-12-31T19:10:27.257Z" agent="Mozilla/5.0 (X11; Linux x86_64) AppleWebKit/537.36 (KHTML, like Gecko) draw.io/22.1.16 Chrome/120.0.6099.109 Electron/28.1.0 Safari/537.36" etag="ie4KWOOnpYhPHf2_AbjV" version="22.1.16" type="device">
  <diagram name="Page-1" id="X268kl-dL6FAhK9zcoyD">
    <mxGraphModel dx="5736" dy="8032" grid="1" gridSize="10" guides="1" tooltips="1" connect="1" arrows="1" fold="1" page="1" pageScale="1" pageWidth="4500" pageHeight="4500" math="0" shadow="0">
      <root>
        <mxCell id="0" />
        <mxCell id="1" parent="0" />
        <mxCell id="z_39Pu71ciSvkAZdyOoH-116" value="package" style="shape=folder;fontStyle=1;spacingTop=10;tabWidth=40;tabHeight=14;tabPosition=left;html=1;whiteSpace=wrap;" parent="1" vertex="1">
          <mxGeometry x="675" y="-3584" width="820" height="660" as="geometry" />
        </mxCell>
        <mxCell id="z_39Pu71ciSvkAZdyOoH-105" value="Controllers" style="shape=folder;fontStyle=1;spacingTop=10;tabWidth=40;tabHeight=14;tabPosition=left;html=1;whiteSpace=wrap;" parent="1" vertex="1">
          <mxGeometry x="3030" y="-3574" width="990" height="800" as="geometry" />
        </mxCell>
        <mxCell id="z_39Pu71ciSvkAZdyOoH-100" value="Repositories" style="shape=folder;fontStyle=1;spacingTop=10;tabWidth=40;tabHeight=14;tabPosition=left;html=1;whiteSpace=wrap;" parent="1" vertex="1">
          <mxGeometry x="2840" y="-2124" width="1390" height="790" as="geometry" />
        </mxCell>
        <mxCell id="z_39Pu71ciSvkAZdyOoH-70" value="Models" style="shape=folder;fontStyle=1;spacingTop=10;tabWidth=40;tabHeight=14;tabPosition=top;html=1;whiteSpace=wrap;" parent="1" vertex="1">
          <mxGeometry x="330" y="-2214" width="2130" height="1080" as="geometry" />
        </mxCell>
        <mxCell id="z_39Pu71ciSvkAZdyOoH-6" value="Enums" style="shape=folder;fontStyle=1;spacingTop=10;tabWidth=40;tabHeight=14;tabPosition=left;html=1;whiteSpace=wrap;" parent="1" vertex="1">
          <mxGeometry x="450" y="-894" width="730" height="340" as="geometry" />
        </mxCell>
        <mxCell id="z_39Pu71ciSvkAZdyOoH-2" value="&lt;p style=&quot;margin:0px;margin-top:4px;text-align:center;&quot;&gt;&lt;i&gt;&amp;lt;&amp;lt;enumeration&amp;gt;&amp;gt;&lt;/i&gt;&lt;br/&gt;&lt;b&gt;CategoryName&lt;/b&gt;&lt;/p&gt;&lt;hr size=&quot;1&quot;/&gt;&lt;p style=&quot;margin:0 0 0 4px;line-height:1.6;&quot;&gt;+ values(): CategoryName[]&lt;br/&gt;+ valueOf(String): CategoryName&lt;/p&gt;" style="verticalAlign=top;align=left;overflow=fill;fontSize=14;fontFamily=Helvetica;html=1;rounded=0;shadow=0;comic=0;labelBackgroundColor=none;strokeWidth=1;movable=1;resizable=1;rotatable=1;deletable=1;editable=1;locked=0;connectable=1;" parent="1" vertex="1">
          <mxGeometry x="493" y="-833.5" width="240" height="40" as="geometry" />
        </mxCell>
        <mxCell id="z_39Pu71ciSvkAZdyOoH-3" value="&lt;p style=&quot;margin:0px;margin-top:4px;text-align:center;&quot;&gt;&lt;i&gt;&amp;lt;&amp;lt;enumeration&amp;gt;&amp;gt;&lt;/i&gt;&lt;br/&gt;&lt;b&gt;NotificationChannel&lt;/b&gt;&lt;/p&gt;&lt;hr size=&quot;1&quot;/&gt;&lt;p style=&quot;margin:0 0 0 4px;line-height:1.6;&quot;&gt;+ valueOf(String): NotificationChannel&lt;br/&gt;+ values(): NotificationChannel[]&lt;/p&gt;" style="verticalAlign=top;align=left;overflow=fill;fontSize=14;fontFamily=Helvetica;html=1;rounded=0;shadow=0;comic=0;labelBackgroundColor=none;strokeWidth=1;" parent="1" vertex="1">
          <mxGeometry x="478" y="-694" width="270" height="40" as="geometry" />
        </mxCell>
        <mxCell id="z_39Pu71ciSvkAZdyOoH-4" value="&lt;p style=&quot;margin:0px;margin-top:4px;text-align:center;&quot;&gt;&lt;i&gt;&amp;lt;&amp;lt;enumeration&amp;gt;&amp;gt;&lt;/i&gt;&lt;br/&gt;&lt;b&gt;NotificationLanguage&lt;/b&gt;&lt;/p&gt;&lt;hr size=&quot;1&quot;/&gt;&lt;p style=&quot;margin:0 0 0 4px;line-height:1.6;&quot;&gt;+ values(): NotificationLanguage[]&lt;br/&gt;+ valueOf(String): NotificationLanguage&lt;/p&gt;" style="verticalAlign=top;align=left;overflow=fill;fontSize=14;fontFamily=Helvetica;html=1;rounded=0;shadow=0;comic=0;labelBackgroundColor=none;strokeWidth=1;" parent="1" vertex="1">
          <mxGeometry x="870" y="-694" width="280" height="40" as="geometry" />
        </mxCell>
        <mxCell id="z_39Pu71ciSvkAZdyOoH-5" value="&lt;p style=&quot;margin:0px;margin-top:4px;text-align:center;&quot;&gt;&lt;i&gt;&amp;lt;&amp;lt;enumeration&amp;gt;&amp;gt;&lt;/i&gt;&lt;br/&gt;&lt;b&gt;OrderStatus&lt;/b&gt;&lt;/p&gt;&lt;hr size=&quot;1&quot;/&gt;&lt;p style=&quot;margin:0 0 0 4px;line-height:1.6;&quot;&gt;+ values(): OrderStatus[]&lt;br/&gt;+ valueOf(String): OrderStatus&lt;/p&gt;" style="verticalAlign=top;align=left;overflow=fill;fontSize=14;fontFamily=Helvetica;html=1;rounded=0;shadow=0;comic=0;labelBackgroundColor=none;strokeWidth=1;" parent="1" vertex="1">
          <mxGeometry x="898.5" y="-833.5" width="223" height="40" as="geometry" />
        </mxCell>
        <mxCell id="z_39Pu71ciSvkAZdyOoH-13" value="Exceptions" style="shape=folder;fontStyle=1;spacingTop=10;tabWidth=40;tabHeight=14;tabPosition=left;html=1;whiteSpace=wrap;" parent="1" vertex="1">
          <mxGeometry x="1560" y="-884.25" width="740" height="320.5" as="geometry" />
        </mxCell>
        <mxCell id="z_39Pu71ciSvkAZdyOoH-7" value="&lt;p style=&quot;margin:0px;margin-top:4px;text-align:center;&quot;&gt;&lt;b&gt;BalanceNotEnoughException&lt;/b&gt;&lt;/p&gt;&lt;hr size=&quot;1&quot;/&gt;" style="verticalAlign=top;align=left;overflow=fill;fontSize=14;fontFamily=Helvetica;html=1;rounded=0;shadow=0;comic=0;labelBackgroundColor=none;strokeWidth=1;" parent="1" vertex="1">
          <mxGeometry x="1577" y="-724.75" width="270" height="30" as="geometry" />
        </mxCell>
        <mxCell id="z_39Pu71ciSvkAZdyOoH-8" value="&lt;p style=&quot;margin:0px;margin-top:4px;text-align:center;&quot;&gt;&lt;b&gt;CategoryNotFoundException&lt;/b&gt;&lt;/p&gt;&lt;hr size=&quot;1&quot;/&gt;" style="verticalAlign=top;align=left;overflow=fill;fontSize=14;fontFamily=Helvetica;html=1;rounded=0;shadow=0;comic=0;labelBackgroundColor=none;strokeWidth=1;" parent="1" vertex="1">
          <mxGeometry x="1575" y="-625.25" width="272" height="30" as="geometry" />
        </mxCell>
        <mxCell id="z_39Pu71ciSvkAZdyOoH-9" value="&lt;p style=&quot;margin:0px;margin-top:4px;text-align:center;&quot;&gt;&lt;b&gt;OrderCancellationDurationException&lt;/b&gt;&lt;/p&gt;&lt;hr size=&quot;1&quot;/&gt;" style="verticalAlign=top;align=left;overflow=fill;fontSize=14;fontFamily=Helvetica;html=1;rounded=0;shadow=0;comic=0;labelBackgroundColor=none;strokeWidth=1;" parent="1" vertex="1">
          <mxGeometry x="1960" y="-625.25" width="328" height="30" as="geometry" />
        </mxCell>
        <mxCell id="z_39Pu71ciSvkAZdyOoH-10" value="&lt;p style=&quot;margin:0px;margin-top:4px;text-align:center;&quot;&gt;&lt;b&gt;OrderNotFoundException&lt;/b&gt;&lt;/p&gt;&lt;hr size=&quot;1&quot;/&gt;" style="verticalAlign=top;align=left;overflow=fill;fontSize=14;fontFamily=Helvetica;html=1;rounded=0;shadow=0;comic=0;labelBackgroundColor=none;strokeWidth=1;" parent="1" vertex="1">
          <mxGeometry x="1590" y="-825.25" width="244" height="30" as="geometry" />
        </mxCell>
        <mxCell id="z_39Pu71ciSvkAZdyOoH-11" value="&lt;p style=&quot;margin:0px;margin-top:4px;text-align:center;&quot;&gt;&lt;b&gt;ProductNotFoundException&lt;/b&gt;&lt;/p&gt;&lt;hr size=&quot;1&quot;/&gt;" style="verticalAlign=top;align=left;overflow=fill;fontSize=14;fontFamily=Helvetica;html=1;rounded=0;shadow=0;comic=0;labelBackgroundColor=none;strokeWidth=1;" parent="1" vertex="1">
          <mxGeometry x="1993.5" y="-724.75" width="261" height="30" as="geometry" />
        </mxCell>
        <mxCell id="z_39Pu71ciSvkAZdyOoH-12" value="&lt;p style=&quot;margin:0px;margin-top:4px;text-align:center;&quot;&gt;&lt;b&gt;UserNotFoundException&lt;/b&gt;&lt;/p&gt;&lt;hr size=&quot;1&quot;/&gt;" style="verticalAlign=top;align=left;overflow=fill;fontSize=14;fontFamily=Helvetica;html=1;rounded=0;shadow=0;comic=0;labelBackgroundColor=none;strokeWidth=1;" parent="1" vertex="1">
          <mxGeometry x="2006" y="-814.75" width="236" height="30" as="geometry" />
        </mxCell>
        <mxCell id="z_39Pu71ciSvkAZdyOoH-24" value="Helpers" style="shape=folder;fontStyle=1;spacingTop=10;tabWidth=50;tabHeight=20;tabPosition=left;html=1;whiteSpace=wrap;" parent="1" vertex="1">
          <mxGeometry x="595" y="-2784" width="980" height="460" as="geometry" />
        </mxCell>
        <mxCell id="z_39Pu71ciSvkAZdyOoH-14" style="edgeStyle=orthogonalEdgeStyle;rounded=0;orthogonalLoop=1;jettySize=auto;html=1;exitX=0.5;exitY=1;exitDx=0;exitDy=0;" parent="1" source="z_39Pu71ciSvkAZdyOoH-7" target="z_39Pu71ciSvkAZdyOoH-7" edge="1">
          <mxGeometry relative="1" as="geometry" />
        </mxCell>
        <mxCell id="z_39Pu71ciSvkAZdyOoH-15" value="&lt;p style=&quot;margin:0px;margin-top:4px;text-align:center;&quot;&gt;&lt;b&gt;NotificationFactory&lt;/b&gt;&lt;/p&gt;&lt;hr size=&quot;1&quot;/&gt;&lt;p style=&quot;margin:0 0 0 4px;line-height:1.6;&quot;&gt;+ createNotification(NotificationSpecs, OrderStatus): Notification&lt;/p&gt;" style="verticalAlign=top;align=left;overflow=fill;fontSize=14;fontFamily=Helvetica;html=1;rounded=0;shadow=0;comic=0;labelBackgroundColor=none;strokeWidth=1;" parent="1" vertex="1">
          <mxGeometry x="615" y="-2714" width="440" height="64" as="geometry" />
        </mxCell>
        <mxCell id="z_39Pu71ciSvkAZdyOoH-16" value="&lt;p style=&quot;margin:0px;margin-top:4px;text-align:center;&quot;&gt;&lt;b&gt;NotificationProcessor&lt;/b&gt;&lt;/p&gt;&lt;hr size=&quot;1&quot;/&gt;&lt;p style=&quot;margin:0 0 0 4px;line-height:1.6;&quot;&gt;+ sendNotification(): void&lt;br/&gt;+ sendNotification(Order, NotificationLanguage, NotificationChannel): void&lt;/p&gt;" style="verticalAlign=top;align=left;overflow=fill;fontSize=14;fontFamily=Helvetica;html=1;rounded=0;shadow=0;comic=0;labelBackgroundColor=none;strokeWidth=1;" parent="1" vertex="1">
          <mxGeometry x="1065" y="-2464" width="470" height="94" as="geometry" />
        </mxCell>
        <mxCell id="z_39Pu71ciSvkAZdyOoH-17" value="&lt;p style=&quot;margin:0px;margin-top:4px;text-align:center;&quot;&gt;&lt;b&gt;OrderProcessor&lt;/b&gt;&lt;/p&gt;&lt;hr size=&quot;1&quot;/&gt;&lt;p style=&quot;margin:0 0 0 4px;line-height:1.6;&quot;&gt;+ createSimpleOrder(SimpleOrderDto): Order&lt;br/&gt;+ getOrderResponseDto(Order): OrderResponseDto&lt;br/&gt;+ calculateShippingFees(double, int): double&lt;br/&gt;+ createCompoundOrder(CompoundOrderDto): Order&lt;br/&gt;+ generateNewOrderId(): int&lt;/p&gt;" style="verticalAlign=top;align=left;overflow=fill;fontSize=14;fontFamily=Helvetica;html=1;rounded=0;shadow=0;comic=0;labelBackgroundColor=none;strokeWidth=1;" parent="1" vertex="1">
          <mxGeometry x="615" y="-2606" width="368" height="171" as="geometry" />
        </mxCell>
        <mxCell id="z_39Pu71ciSvkAZdyOoH-18" value="&lt;p style=&quot;margin:0px;margin-top:4px;text-align:center;&quot;&gt;&lt;b&gt;PaymentProcessor&lt;/b&gt;&lt;/p&gt;&lt;hr size=&quot;1&quot;/&gt;&lt;p style=&quot;margin:0 0 0 4px;line-height:1.6;&quot;&gt;+ pay(int): void&lt;/p&gt;" style="verticalAlign=top;align=left;overflow=fill;fontSize=14;fontFamily=Helvetica;html=1;rounded=0;shadow=0;comic=0;labelBackgroundColor=none;strokeWidth=1;" parent="1" vertex="1">
          <mxGeometry x="1265" y="-2614" width="194" height="64" as="geometry" />
        </mxCell>
        <mxCell id="z_39Pu71ciSvkAZdyOoH-19" value="&lt;p style=&quot;margin:0px;margin-top:4px;text-align:center;&quot;&gt;&lt;b&gt;ProductProcessor&lt;/b&gt;&lt;/p&gt;&lt;hr size=&quot;1&quot;/&gt;&lt;p style=&quot;margin:0 0 0 4px;line-height:1.6;&quot;&gt;+ createProduct(ProductDto): Product&lt;/p&gt;" style="verticalAlign=top;align=left;overflow=fill;fontSize=14;fontFamily=Helvetica;html=1;rounded=0;shadow=0;comic=0;labelBackgroundColor=none;strokeWidth=1;" parent="1" vertex="1">
          <mxGeometry x="1238" y="-2714" width="271" height="64" as="geometry" />
        </mxCell>
        <mxCell id="z_39Pu71ciSvkAZdyOoH-20" value="" style="html=1;rounded=1;edgeStyle=orthogonalEdgeStyle;dashed=0;startArrow=diamondThinstartSize=12;endArrow=openThin;endSize=12;strokeColor=#595959;exitX=1;exitY=0.25;exitDx=0;exitDy=0;entryX=0.000;entryY=0.803;entryDx=0;entryDy=0;" parent="1" source="z_39Pu71ciSvkAZdyOoH-17" target="z_39Pu71ciSvkAZdyOoH-18" edge="1">
          <mxGeometry width="50" height="50" relative="1" as="geometry">
            <Array as="points" />
          </mxGeometry>
        </mxCell>
        <mxCell id="z_39Pu71ciSvkAZdyOoH-25" value="&lt;p style=&quot;margin:0px;margin-top:4px;text-align:center;&quot;&gt;&lt;b&gt;Category&lt;/b&gt;&lt;/p&gt;&lt;hr size=&quot;1&quot;/&gt;&lt;p style=&quot;margin:0 0 0 4px;line-height:1.6;&quot;&gt;+ addProduct(Product): void&lt;br/&gt;+ removeProduct(Product): void&lt;/p&gt;&lt;hr size=&quot;1&quot;/&gt;&lt;p style=&quot;margin:0 0 0 4px;line-height:1.6;&quot;&gt; description: String&lt;br/&gt; products: List&amp;lt;Product&amp;gt;&lt;br/&gt; name: CategoryName&lt;br/&gt; id: int&lt;/p&gt;" style="verticalAlign=top;align=left;overflow=fill;fontSize=14;fontFamily=Helvetica;html=1;rounded=0;shadow=0;comic=0;labelBackgroundColor=none;strokeWidth=1;" parent="1" vertex="1">
          <mxGeometry x="400" y="-1494.5" width="233" height="187" as="geometry" />
        </mxCell>
        <mxCell id="ZYc5shfy5ZzfJf_vbFoQ-31" style="edgeStyle=orthogonalEdgeStyle;rounded=0;orthogonalLoop=1;jettySize=auto;html=1;exitX=0.5;exitY=0;exitDx=0;exitDy=0;entryX=0.5;entryY=1;entryDx=0;entryDy=0;" parent="1" source="z_39Pu71ciSvkAZdyOoH-26" target="z_39Pu71ciSvkAZdyOoH-29" edge="1">
          <mxGeometry relative="1" as="geometry">
            <Array as="points">
              <mxPoint x="2198.9700000000003" y="-1791" />
              <mxPoint x="1974.9700000000003" y="-1791" />
            </Array>
          </mxGeometry>
        </mxCell>
        <mxCell id="ZYc5shfy5ZzfJf_vbFoQ-32" style="edgeStyle=orthogonalEdgeStyle;rounded=0;orthogonalLoop=1;jettySize=auto;html=1;exitX=1;exitY=0.5;exitDx=0;exitDy=0;entryX=1;entryY=0.5;entryDx=0;entryDy=0;" parent="1" source="z_39Pu71ciSvkAZdyOoH-26" target="z_39Pu71ciSvkAZdyOoH-29" edge="1">
          <mxGeometry relative="1" as="geometry" />
        </mxCell>
        <mxCell id="z_39Pu71ciSvkAZdyOoH-26" value="&lt;p style=&quot;margin:0px;margin-top:4px;text-align:center;&quot;&gt;&lt;b&gt;CompoundOrder&lt;/b&gt;&lt;/p&gt;&lt;hr size=&quot;1&quot;/&gt;&lt;p style=&quot;margin:0 0 0 4px;line-height:1.6;&quot;&gt; status: OrderStatus&lt;br/&gt; specs: OrderSpecs&lt;br/&gt; orderDetails: String&lt;br/&gt; orderCount: int&lt;br/&gt; totalPrice: double&lt;br/&gt; creationDate: LocalDateTime&lt;br/&gt; id: int&lt;br/&gt; shippingFees: double&lt;br/&gt; user: User&lt;br/&gt; simpleOrders: List&amp;lt;Order&amp;gt;&lt;/p&gt;" style="verticalAlign=top;align=left;overflow=fill;fontSize=14;fontFamily=Helvetica;html=1;rounded=0;shadow=0;comic=0;labelBackgroundColor=none;strokeWidth=1;" parent="1" vertex="1">
          <mxGeometry x="2086.9700000000003" y="-1743.75" width="223" height="265.5" as="geometry" />
        </mxCell>
        <mxCell id="z_39Pu71ciSvkAZdyOoH-27" value="&lt;p style=&quot;margin:0px;margin-top:4px;text-align:center;&quot;&gt;&lt;b&gt;Notification&lt;/b&gt;&lt;/p&gt;&lt;hr size=&quot;1&quot;&gt;&lt;p style=&quot;margin:0 0 0 4px;line-height:1.6;&quot;&gt;+ toString(): String&lt;/p&gt;&lt;p style=&quot;margin:0 0 0 4px;line-height:1.6;&quot;&gt;+ getSpecs(): NotificationSpecs&lt;/p&gt;&lt;hr size=&quot;1&quot;&gt;&lt;p style=&quot;margin:0 0 0 4px;line-height:1.6;&quot;&gt; template: String&lt;br&gt; notificationSpecs: NotificationSpecs&lt;/p&gt;" style="verticalAlign=top;align=left;overflow=fill;fontSize=14;fontFamily=Helvetica;html=1;rounded=0;shadow=0;comic=0;labelBackgroundColor=none;strokeWidth=1;" parent="1" vertex="1">
          <mxGeometry x="847.5" y="-2094" width="234" height="144" as="geometry" />
        </mxCell>
        <mxCell id="z_39Pu71ciSvkAZdyOoH-28" value="&lt;p style=&quot;margin:0px;margin-top:4px;text-align:center;&quot;&gt;&lt;b&gt;NotificationSpecs&lt;/b&gt;&lt;/p&gt;&lt;hr size=&quot;1&quot;/&gt;&lt;p style=&quot;margin:0 0 0 4px;line-height:1.6;&quot;&gt; channel: NotificationChannel&lt;br/&gt; numberDays: int&lt;br/&gt; refundAmount: double&lt;br/&gt; customerName: String&lt;br/&gt; language: NotificationLanguage&lt;br/&gt; orderNumber: int&lt;/p&gt;" style="verticalAlign=top;align=left;overflow=fill;fontSize=14;fontFamily=Helvetica;html=1;rounded=0;shadow=0;comic=0;labelBackgroundColor=none;strokeWidth=1;" parent="1" vertex="1">
          <mxGeometry x="380.5" y="-2048" width="242" height="199" as="geometry" />
        </mxCell>
        <mxCell id="z_39Pu71ciSvkAZdyOoH-29" value="&lt;p style=&quot;margin:0px;margin-top:4px;text-align:center;&quot;&gt;&lt;i&gt;&amp;lt;&amp;lt;interface&amp;gt;&amp;gt;&lt;/i&gt;&lt;br/&gt;&lt;b&gt;Order&lt;/b&gt;&lt;/p&gt;&lt;hr size=&quot;1&quot;/&gt;&lt;p style=&quot;margin:0 0 0 4px;line-height:1.6;&quot;&gt; status: OrderStatus&lt;br/&gt; specs: OrderSpecs&lt;br/&gt; orderDetails: String&lt;br/&gt; orderCount: int&lt;br/&gt; totalPrice: double&lt;br/&gt; creationDate: LocalDateTime&lt;br/&gt; id: int&lt;br/&gt; shippingFees: double&lt;br/&gt; user: User&lt;/p&gt;" style="verticalAlign=top;align=left;overflow=fill;fontSize=14;fontFamily=Helvetica;html=1;rounded=0;shadow=0;comic=0;labelBackgroundColor=none;strokeWidth=1;" parent="1" vertex="1">
          <mxGeometry x="1863.9700000000003" y="-2104" width="223" height="283" as="geometry" />
        </mxCell>
        <mxCell id="z_39Pu71ciSvkAZdyOoH-30" value="&lt;p style=&quot;margin:0px;margin-top:4px;text-align:center;&quot;&gt;&lt;b&gt;OrderCancelledNotification&lt;/b&gt;&lt;/p&gt;&lt;hr size=&quot;1&quot;/&gt;&lt;p style=&quot;margin:0 0 0 4px;line-height:1.6;&quot;&gt; notificationMessage: String&lt;/p&gt;" style="verticalAlign=top;align=left;overflow=fill;fontSize=14;fontFamily=Helvetica;html=1;rounded=0;shadow=0;comic=0;labelBackgroundColor=none;strokeWidth=1;" parent="1" vertex="1">
          <mxGeometry x="1139.5" y="-1824" width="259" height="64" as="geometry" />
        </mxCell>
        <mxCell id="z_39Pu71ciSvkAZdyOoH-31" value="&lt;p style=&quot;margin:0px;margin-top:4px;text-align:center;&quot;&gt;&lt;b&gt;OrderPlacedNotification&lt;/b&gt;&lt;/p&gt;&lt;hr size=&quot;1&quot;/&gt;&lt;p style=&quot;margin:0 0 0 4px;line-height:1.6;&quot;&gt; notificationMessage: String&lt;/p&gt;" style="verticalAlign=top;align=left;overflow=fill;fontSize=14;fontFamily=Helvetica;html=1;rounded=0;shadow=0;comic=0;labelBackgroundColor=none;strokeWidth=1;" parent="1" vertex="1">
          <mxGeometry x="846.5" y="-1825" width="235" height="64" as="geometry" />
        </mxCell>
        <mxCell id="z_39Pu71ciSvkAZdyOoH-32" value="&lt;p style=&quot;margin:0px;margin-top:4px;text-align:center;&quot;&gt;&lt;b&gt;OrderShippedNotification&lt;/b&gt;&lt;/p&gt;&lt;hr size=&quot;1&quot;/&gt;&lt;p style=&quot;margin:0 0 0 4px;line-height:1.6;&quot;&gt; notificationMessage: String&lt;/p&gt;" style="verticalAlign=top;align=left;overflow=fill;fontSize=14;fontFamily=Helvetica;html=1;rounded=0;shadow=0;comic=0;labelBackgroundColor=none;strokeWidth=1;" parent="1" vertex="1">
          <mxGeometry x="529.5" y="-1824" width="246" height="64" as="geometry" />
        </mxCell>
        <mxCell id="z_39Pu71ciSvkAZdyOoH-33" value="&lt;p style=&quot;margin:0px;margin-top:4px;text-align:center;&quot;&gt;&lt;b&gt;OrderSpecs&lt;/b&gt;&lt;/p&gt;&lt;hr size=&quot;1&quot;/&gt;&lt;p style=&quot;margin:0 0 0 4px;line-height:1.6;&quot;&gt;+ removeProduct(Product, int): void&lt;br/&gt;+ addProduct(Product, int): void&lt;/p&gt;&lt;hr size=&quot;1&quot;/&gt;&lt;p style=&quot;margin:0 0 0 4px;line-height:1.6;&quot;&gt; status: OrderStatus&lt;br/&gt; creationDate: LocalDateTime&lt;br/&gt; products: Map&amp;lt;Product, Integer&amp;gt;&lt;br/&gt; productsPrice: double&lt;br/&gt; id: int&lt;br/&gt; shippingFees: double&lt;br/&gt; user: User&lt;/p&gt;" style="verticalAlign=top;align=left;overflow=fill;fontSize=14;fontFamily=Helvetica;html=1;rounded=0;shadow=0;comic=0;labelBackgroundColor=none;strokeWidth=1;" parent="1" vertex="1">
          <mxGeometry x="1543.9699999999998" y="-2104" width="257" height="266" as="geometry" />
        </mxCell>
        <mxCell id="z_39Pu71ciSvkAZdyOoH-34" value="&lt;p style=&quot;margin:0px;margin-top:4px;text-align:center;&quot;&gt;&lt;b&gt;Product&lt;/b&gt;&lt;/p&gt;&lt;hr size=&quot;1&quot;/&gt;&lt;p style=&quot;margin:0 0 0 4px;line-height:1.6;&quot;&gt; name: String&lt;br/&gt; description: String&lt;br/&gt; vendor: String&lt;br/&gt; id: int&lt;br/&gt; price: double&lt;/p&gt;" style="verticalAlign=top;align=left;overflow=fill;fontSize=14;fontFamily=Helvetica;html=1;rounded=0;shadow=0;comic=0;labelBackgroundColor=none;strokeWidth=1;" parent="1" vertex="1">
          <mxGeometry x="810" y="-1484" width="159" height="152" as="geometry" />
        </mxCell>
        <mxCell id="ZYc5shfy5ZzfJf_vbFoQ-29" style="edgeStyle=orthogonalEdgeStyle;rounded=0;orthogonalLoop=1;jettySize=auto;html=1;exitX=0.5;exitY=0;exitDx=0;exitDy=0;entryX=0.5;entryY=1;entryDx=0;entryDy=0;" parent="1" target="z_39Pu71ciSvkAZdyOoH-29" edge="1">
          <mxGeometry relative="1" as="geometry">
            <mxPoint x="1735.47" y="-1761" as="sourcePoint" />
            <Array as="points">
              <mxPoint x="1733.97" y="-1761" />
              <mxPoint x="1733.97" y="-1791" />
              <mxPoint x="1974.9700000000003" y="-1791" />
            </Array>
          </mxGeometry>
        </mxCell>
        <mxCell id="z_39Pu71ciSvkAZdyOoH-35" value="&lt;p style=&quot;margin:0px;margin-top:4px;text-align:center;&quot;&gt;&lt;b&gt;SimpleOrder&lt;/b&gt;&lt;/p&gt;&lt;hr size=&quot;1&quot;/&gt;&lt;p style=&quot;margin:0 0 0 4px;line-height:1.6;&quot;&gt;+ addProduct(Product, int): void&lt;br/&gt;+ removeProduct(Product, int): void&lt;/p&gt;&lt;hr size=&quot;1&quot;/&gt;&lt;p style=&quot;margin:0 0 0 4px;line-height:1.6;&quot;&gt; status: OrderStatus&lt;br/&gt; specs: OrderSpecs&lt;br/&gt; orderDetails: String&lt;br/&gt; orderCount: int&lt;br/&gt; totalPrice: double&lt;br/&gt; creationDate: LocalDateTime&lt;br/&gt; id: int&lt;br/&gt; shippingFees: double&lt;br/&gt; user: User&lt;/p&gt;" style="verticalAlign=top;align=left;overflow=fill;fontSize=14;fontFamily=Helvetica;html=1;rounded=0;shadow=0;comic=0;labelBackgroundColor=none;strokeWidth=1;" parent="1" vertex="1">
          <mxGeometry x="1607.03" y="-1761" width="257" height="300" as="geometry" />
        </mxCell>
        <mxCell id="z_39Pu71ciSvkAZdyOoH-36" value="&lt;p style=&quot;margin:0px;margin-top:4px;text-align:center;&quot;&gt;&lt;b&gt;User&lt;/b&gt;&lt;/p&gt;&lt;hr size=&quot;1&quot;/&gt;&lt;p style=&quot;margin:0 0 0 4px;line-height:1.6;&quot;&gt; name: String&lt;br/&gt; password: String&lt;br/&gt; balance: double&lt;br/&gt; area: String&lt;br/&gt; email: String&lt;br/&gt; phoneNumber: String&lt;br/&gt; username: String&lt;br/&gt; address: String&lt;/p&gt;" style="verticalAlign=top;align=left;overflow=fill;fontSize=14;fontFamily=Helvetica;html=1;rounded=0;shadow=0;comic=0;labelBackgroundColor=none;strokeWidth=1;" parent="1" vertex="1">
          <mxGeometry x="1180" y="-1511" width="179" height="220" as="geometry" />
        </mxCell>
        <mxCell id="z_39Pu71ciSvkAZdyOoH-50" value="" style="html=1;rounded=1;edgeStyle=orthogonalEdgeStyle;dashed=0;startArrow=diamondThinstartSize=12;endArrow=openThin;endSize=12;strokeColor=#595959;exitX=0.000;exitY=0.500;exitDx=0;exitDy=0;entryX=1.000;entryY=0.706;entryDx=0;entryDy=0;" parent="1" source="z_39Pu71ciSvkAZdyOoH-27" target="z_39Pu71ciSvkAZdyOoH-28" edge="1">
          <mxGeometry width="50" height="50" relative="1" as="geometry">
            <Array as="points" />
          </mxGeometry>
        </mxCell>
        <mxCell id="z_39Pu71ciSvkAZdyOoH-54" value="" style="html=1;rounded=1;edgeStyle=orthogonalEdgeStyle;dashed=0;startArrow=none;endArrow=block;endSize=12;strokeColor=#000082;exitX=0.500;exitY=0.000;exitDx=0;exitDy=0;entryX=0.500;entryY=1.000;entryDx=0;entryDy=0;" parent="1" source="z_39Pu71ciSvkAZdyOoH-30" target="z_39Pu71ciSvkAZdyOoH-27" edge="1">
          <mxGeometry width="50" height="50" relative="1" as="geometry">
            <Array as="points">
              <mxPoint x="1269.5" y="-1864" />
              <mxPoint x="963.5" y="-1864" />
            </Array>
          </mxGeometry>
        </mxCell>
        <mxCell id="z_39Pu71ciSvkAZdyOoH-55" value="" style="html=1;rounded=1;edgeStyle=orthogonalEdgeStyle;dashed=0;startArrow=none;endArrow=block;endSize=12;strokeColor=#000082;exitX=0.5;exitY=0;exitDx=0;exitDy=0;" parent="1" source="z_39Pu71ciSvkAZdyOoH-31" edge="1">
          <mxGeometry width="50" height="50" relative="1" as="geometry">
            <Array as="points">
              <mxPoint x="964" y="-1880" />
              <mxPoint x="964" y="-1880" />
            </Array>
            <mxPoint x="962" y="-1824" as="sourcePoint" />
            <mxPoint x="964" y="-1950" as="targetPoint" />
          </mxGeometry>
        </mxCell>
        <mxCell id="z_39Pu71ciSvkAZdyOoH-56" value="" style="html=1;rounded=1;edgeStyle=orthogonalEdgeStyle;dashed=0;startArrow=none;endArrow=block;endSize=12;strokeColor=#000082;exitX=0.500;exitY=0.000;exitDx=0;exitDy=0;entryX=0.500;entryY=1.000;entryDx=0;entryDy=0;" parent="1" source="z_39Pu71ciSvkAZdyOoH-32" target="z_39Pu71ciSvkAZdyOoH-27" edge="1">
          <mxGeometry width="50" height="50" relative="1" as="geometry">
            <Array as="points">
              <mxPoint x="651.5" y="-1864" />
              <mxPoint x="963.5" y="-1864" />
            </Array>
          </mxGeometry>
        </mxCell>
        <mxCell id="z_39Pu71ciSvkAZdyOoH-71" value="&lt;p style=&quot;margin:0px;margin-top:4px;text-align:center;&quot;&gt;&lt;b&gt;CategoryRepository&lt;/b&gt;&lt;/p&gt;&lt;hr size=&quot;1&quot;/&gt;&lt;p style=&quot;margin:0 0 0 4px;line-height:1.6;&quot;&gt;+ getProductsByCategory(int): List&amp;lt;Product&amp;gt;&lt;br/&gt;+ getCategory(int): Category&lt;br/&gt;+ addProductToCategory(int, Product): void&lt;br/&gt;+ removeCategory(int): void&lt;br/&gt;+ addNewCategory(Category): void&lt;/p&gt;&lt;hr size=&quot;1&quot;/&gt;&lt;p style=&quot;margin:0 0 0 4px;line-height:1.6;&quot;&gt; all: List&amp;lt;Category&amp;gt;&lt;/p&gt;" style="verticalAlign=top;align=left;overflow=fill;fontSize=14;fontFamily=Helvetica;html=1;rounded=0;shadow=0;comic=0;labelBackgroundColor=none;strokeWidth=1;" parent="1" vertex="1">
          <mxGeometry x="3750" y="-1640" width="316" height="200" as="geometry" />
        </mxCell>
        <mxCell id="z_39Pu71ciSvkAZdyOoH-73" value="&lt;p style=&quot;margin:0px;margin-top:4px;text-align:center;&quot;&gt;&lt;b&gt;OrderRepository&lt;/b&gt;&lt;/p&gt;&lt;hr size=&quot;1&quot;/&gt;&lt;p style=&quot;margin:0 0 0 4px;line-height:1.6;&quot;&gt;+ createCompoundOrder(Order): void&lt;br/&gt;+ getById(int): Order&lt;br/&gt;+ createSimpleOrder(Order): void&lt;/p&gt;&lt;hr size=&quot;1&quot;/&gt;&lt;p style=&quot;margin:0 0 0 4px;line-height:1.6;&quot;&gt; all: List&amp;lt;Order&amp;gt;&lt;br/&gt; numberOfOrders: int&lt;/p&gt;" style="verticalAlign=top;align=left;overflow=fill;fontSize=14;fontFamily=Helvetica;html=1;rounded=0;shadow=0;comic=0;labelBackgroundColor=none;strokeWidth=1;" parent="1" vertex="1">
          <mxGeometry x="3340" y="-1612" width="268" height="172" as="geometry" />
        </mxCell>
        <mxCell id="z_39Pu71ciSvkAZdyOoH-74" value="&lt;p style=&quot;margin:0px;margin-top:4px;text-align:center;&quot;&gt;&lt;b&gt;ProductRepository&lt;/b&gt;&lt;/p&gt;&lt;hr size=&quot;1&quot;/&gt;&lt;p style=&quot;margin:0 0 0 4px;line-height:1.6;&quot;&gt;+ remove(int): void&lt;br/&gt;+ updateQuantity(int, int): void&lt;br/&gt;+ add(Product, int): void&lt;br/&gt;+ getById(int): Product&lt;/p&gt;&lt;hr size=&quot;1&quot;/&gt;&lt;p style=&quot;margin:0 0 0 4px;line-height:1.6;&quot;&gt; all: Map&amp;lt;Product, Integer&amp;gt;&lt;br/&gt; nextId: int&lt;/p&gt;" style="verticalAlign=top;align=left;overflow=fill;fontSize=14;fontFamily=Helvetica;html=1;rounded=0;shadow=0;comic=0;labelBackgroundColor=none;strokeWidth=1;" parent="1" vertex="1">
          <mxGeometry x="2920" y="-1612" width="225" height="200" as="geometry" />
        </mxCell>
        <mxCell id="z_39Pu71ciSvkAZdyOoH-75" value="&lt;p style=&quot;margin:0px;margin-top:4px;text-align:center;&quot;&gt;&lt;b&gt;UserRepository&lt;/b&gt;&lt;/p&gt;&lt;hr size=&quot;1&quot;/&gt;&lt;p style=&quot;margin:0 0 0 4px;line-height:1.6;&quot;&gt;+ getUserByUsername(String): User&lt;br/&gt;+ registerNewUser(User): void&lt;br/&gt;- isUsernameTaken(String): boolean&lt;/p&gt;" style="verticalAlign=top;align=left;overflow=fill;fontSize=14;fontFamily=Helvetica;html=1;rounded=0;shadow=0;comic=0;labelBackgroundColor=none;strokeWidth=1;" parent="1" vertex="1">
          <mxGeometry x="3850" y="-1815" width="261" height="124" as="geometry" />
        </mxCell>
        <mxCell id="z_39Pu71ciSvkAZdyOoH-80" value="" style="html=1;rounded=1;edgeStyle=orthogonalEdgeStyle;dashed=1;startArrow=none;endArrow=openThin;endSize=12;strokeColor=#595959;exitX=1.000;exitY=0.710;exitDx=0;exitDy=0;entryX=0.000;entryY=0.591;entryDx=0;entryDy=0;" parent="1" target="z_39Pu71ciSvkAZdyOoH-71" edge="1">
          <mxGeometry width="50" height="50" relative="1" as="geometry">
            <Array as="points" />
            <mxPoint x="3690" y="-1873.9499999999998" as="sourcePoint" />
          </mxGeometry>
        </mxCell>
        <mxCell id="z_39Pu71ciSvkAZdyOoH-86" value="" style="html=1;rounded=1;edgeStyle=orthogonalEdgeStyle;dashed=1;startArrow=none;endArrow=openThin;endSize=12;strokeColor=#595959;entryX=0.173;entryY=0.000;entryDx=0;entryDy=0;" parent="1" target="z_39Pu71ciSvkAZdyOoH-73" edge="1">
          <mxGeometry width="50" height="50" relative="1" as="geometry">
            <Array as="points" />
            <mxPoint x="3510.000000000001" y="-1800" as="sourcePoint" />
          </mxGeometry>
        </mxCell>
        <mxCell id="z_39Pu71ciSvkAZdyOoH-92" value="" style="html=1;rounded=1;edgeStyle=orthogonalEdgeStyle;dashed=1;startArrow=none;endArrow=openThin;endSize=12;strokeColor=#595959;exitX=0.087;exitY=1.004;exitDx=0;exitDy=0;entryX=0.5;entryY=0;entryDx=0;entryDy=0;exitPerimeter=0;" parent="1" source="ozPsrXtaEzwnSQiqV_UA-1" target="z_39Pu71ciSvkAZdyOoH-74" edge="1">
          <mxGeometry width="50" height="50" relative="1" as="geometry">
            <Array as="points">
              <mxPoint x="3370" y="-1680" />
              <mxPoint x="3033" y="-1680" />
            </Array>
            <mxPoint x="3330" y="-1927.5" as="sourcePoint" />
          </mxGeometry>
        </mxCell>
        <mxCell id="z_39Pu71ciSvkAZdyOoH-98" value="" style="html=1;rounded=1;edgeStyle=orthogonalEdgeStyle;dashed=1;startArrow=none;endArrow=openThin;endSize=12;strokeColor=#595959;exitX=1;exitY=0.5;exitDx=0;exitDy=0;entryX=0.5;entryY=0;entryDx=0;entryDy=0;" parent="1" target="z_39Pu71ciSvkAZdyOoH-75" edge="1">
          <mxGeometry width="50" height="50" relative="1" as="geometry">
            <Array as="points">
              <mxPoint x="3980" y="-1984" />
            </Array>
            <mxPoint x="3690" y="-1927.5" as="sourcePoint" />
          </mxGeometry>
        </mxCell>
        <mxCell id="z_39Pu71ciSvkAZdyOoH-101" value="&lt;p style=&quot;margin:0px;margin-top:4px;text-align:center;&quot;&gt;&lt;b&gt;AuthenticationController&lt;/b&gt;&lt;/p&gt;&lt;hr size=&quot;1&quot;/&gt;&lt;p style=&quot;margin:0 0 0 4px;line-height:1.6;&quot;&gt;- context: DbContext&lt;/p&gt;&lt;hr size=&quot;1&quot;/&gt;&lt;p style=&quot;margin:0 0 0 4px;line-height:1.6;&quot;&gt;+ register(User): void&lt;/p&gt;" style="verticalAlign=top;align=left;overflow=fill;fontSize=14;fontFamily=Helvetica;html=1;rounded=0;shadow=0;comic=0;labelBackgroundColor=none;strokeWidth=1;" parent="1" vertex="1">
          <mxGeometry x="3139" y="-3000" width="238" height="95" as="geometry" />
        </mxCell>
        <mxCell id="z_39Pu71ciSvkAZdyOoH-102" value="&lt;p style=&quot;margin:0px;margin-top:4px;text-align:center;&quot;&gt;&lt;b&gt;CategoryController&lt;/b&gt;&lt;/p&gt;&lt;hr size=&quot;1&quot;/&gt;&lt;p style=&quot;margin:0 0 0 4px;line-height:1.6;&quot;&gt;- context: DbContext&lt;/p&gt;&lt;hr size=&quot;1&quot;/&gt;&lt;p style=&quot;margin:0 0 0 4px;line-height:1.6;&quot;&gt;+ getAllCategories(): List&amp;lt;Category&amp;gt;&lt;br/&gt;+ getCategoryById(int): Category&lt;br/&gt;+ addCategory(Category): void&lt;br/&gt;+ getProductsByCategory(int): List&amp;lt;Product&amp;gt;&lt;br/&gt;+ removeCategory(int): void&lt;/p&gt;" style="verticalAlign=top;align=left;overflow=fill;fontSize=14;fontFamily=Helvetica;html=1;rounded=0;shadow=0;comic=0;labelBackgroundColor=none;strokeWidth=1;" parent="1" vertex="1">
          <mxGeometry x="3100" y="-3270.25" width="316" height="192.5" as="geometry" />
        </mxCell>
        <mxCell id="z_39Pu71ciSvkAZdyOoH-103" value="&lt;p style=&quot;margin:0px;margin-top:4px;text-align:center;&quot;&gt;&lt;b&gt;OrderController&lt;/b&gt;&lt;/p&gt;&lt;hr size=&quot;1&quot;/&gt;&lt;p style=&quot;margin:0 0 0 4px;line-height:1.6;&quot;&gt;- MAX_CANCEL_DURATION_IN_MINUTES: int&lt;br/&gt;- paymentProcessor: PaymentProcessor&lt;br/&gt;- notificationProcessor: NotificationProcessor&lt;br/&gt;- context: DbContext&lt;br/&gt;- orderProcessor: OrderProcessor&lt;/p&gt;&lt;hr size=&quot;1&quot;/&gt;&lt;p style=&quot;margin:0 0 0 4px;line-height:1.6;&quot;&gt;+ updateOrderStatus(UpdateOrderStatusDto): void&lt;br/&gt;+ CreateSimpleOrder(SimpleOrderDto): void&lt;br/&gt;+ getOrderDetails(int): String&lt;br/&gt;+ createCompoundOrder(CompoundOrderDto): void&lt;br/&gt;+ cancelOrder(int): void&lt;br/&gt;+ getAllOrders(): List&amp;lt;OrderResponseDto&amp;gt;&lt;br/&gt;+ getOrderById(int): Order&lt;/p&gt;" style="verticalAlign=top;align=left;overflow=fill;fontSize=14;fontFamily=Helvetica;html=1;rounded=0;shadow=0;comic=0;labelBackgroundColor=none;strokeWidth=1;" parent="1" vertex="1">
          <mxGeometry x="3590" y="-3522" width="358" height="328" as="geometry" />
        </mxCell>
        <mxCell id="z_39Pu71ciSvkAZdyOoH-104" value="&lt;p style=&quot;margin:0px;margin-top:4px;text-align:center;&quot;&gt;&lt;b&gt;ProductController&lt;/b&gt;&lt;/p&gt;&lt;hr size=&quot;1&quot;/&gt;&lt;p style=&quot;margin:0 0 0 4px;line-height:1.6;&quot;&gt;- context: DbContext&lt;br/&gt;- productProcessor: ProductProcessor&lt;/p&gt;&lt;hr size=&quot;1&quot;/&gt;&lt;p style=&quot;margin:0 0 0 4px;line-height:1.6;&quot;&gt;+ updateProductQuantity(UpdateProductQuantityDto): void&lt;br/&gt;+ getAllProducts(): List&amp;lt;Product&amp;gt;&lt;br/&gt;+ getProductById(int): Product&lt;br/&gt;+ removeProduct(int): void&lt;br/&gt;+ addProduct(ProductDto): void&lt;/p&gt;" style="verticalAlign=top;align=left;overflow=fill;fontSize=14;fontFamily=Helvetica;html=1;rounded=0;shadow=0;comic=0;labelBackgroundColor=none;strokeWidth=1;" parent="1" vertex="1">
          <mxGeometry x="3061" y="-3522" width="404" height="212" as="geometry" />
        </mxCell>
        <mxCell id="z_39Pu71ciSvkAZdyOoH-106" value="&lt;p style=&quot;margin:0px;margin-top:4px;text-align:center;&quot;&gt;&lt;b&gt;CompoundOrderDto&lt;/b&gt;&lt;/p&gt;&lt;hr size=&quot;1&quot;/&gt;&lt;p style=&quot;margin:0 0 0 4px;line-height:1.6;&quot;&gt;+ shippingFees: double&lt;br/&gt;+ simpleOrders: List&amp;lt;SimpleOrderDto&amp;gt;&lt;br/&gt;+ usernameOfSuperUser: String&lt;/p&gt;" style="verticalAlign=top;align=left;overflow=fill;fontSize=14;fontFamily=Helvetica;html=1;rounded=0;shadow=0;comic=0;labelBackgroundColor=none;strokeWidth=1;" parent="1" vertex="1">
          <mxGeometry x="1184" y="-3094" width="274" height="124" as="geometry" />
        </mxCell>
        <mxCell id="z_39Pu71ciSvkAZdyOoH-107" value="&lt;p style=&quot;margin:0px;margin-top:4px;text-align:center;&quot;&gt;&lt;b&gt;OrderResponseDto&lt;/b&gt;&lt;/p&gt;&lt;hr size=&quot;1&quot;/&gt;&lt;p style=&quot;margin:0 0 0 4px;line-height:1.6;&quot;&gt;+ status: OrderStatus&lt;br/&gt;+ products: List&amp;lt;Product&amp;gt;&lt;br/&gt;+ user: User&lt;br/&gt;+ productsPrice: double&lt;br/&gt;+ creationDate: LocalDateTime&lt;br/&gt;+ id: int&lt;br/&gt;+ shippingFees: double&lt;br/&gt;+ productsQuantities: List&amp;lt;List&amp;lt;Integer&amp;gt;&amp;gt;&lt;/p&gt;" style="verticalAlign=top;align=left;overflow=fill;fontSize=14;fontFamily=Helvetica;html=1;rounded=0;shadow=0;comic=0;labelBackgroundColor=none;strokeWidth=1;" parent="1" vertex="1">
          <mxGeometry x="715" y="-3220" width="297" height="255" as="geometry" />
        </mxCell>
        <mxCell id="z_39Pu71ciSvkAZdyOoH-108" value="&lt;p style=&quot;margin:0px;margin-top:4px;text-align:center;&quot;&gt;&lt;b&gt;ProductDto&lt;/b&gt;&lt;/p&gt;&lt;hr size=&quot;1&quot;/&gt;&lt;p style=&quot;margin:0 0 0 4px;line-height:1.6;&quot;&gt;+ description: String&lt;br/&gt;+ price: double&lt;br/&gt;+ quantity: int&lt;br/&gt;+ name: String&lt;br/&gt;+ vendor: String&lt;/p&gt;" style="verticalAlign=top;align=left;overflow=fill;fontSize=14;fontFamily=Helvetica;html=1;rounded=0;shadow=0;comic=0;labelBackgroundColor=none;strokeWidth=1;" parent="1" vertex="1">
          <mxGeometry x="1012.5" y="-3536.5" width="159" height="171" as="geometry" />
        </mxCell>
        <mxCell id="z_39Pu71ciSvkAZdyOoH-109" value="&lt;p style=&quot;margin:0px;margin-top:4px;text-align:center;&quot;&gt;&lt;b&gt;SimpleOrderDto&lt;/b&gt;&lt;/p&gt;&lt;hr size=&quot;1&quot;/&gt;&lt;p style=&quot;margin:0 0 0 4px;line-height:1.6;&quot;&gt;+ shippingFees: double&lt;br/&gt;+ username: String&lt;br/&gt;+ products: List&amp;lt;List&amp;lt;Integer&amp;gt;&amp;gt;&lt;/p&gt;" style="verticalAlign=top;align=left;overflow=fill;fontSize=14;fontFamily=Helvetica;html=1;rounded=0;shadow=0;comic=0;labelBackgroundColor=none;strokeWidth=1;" parent="1" vertex="1">
          <mxGeometry x="1204.5" y="-3344" width="233" height="124" as="geometry" />
        </mxCell>
        <mxCell id="z_39Pu71ciSvkAZdyOoH-110" value="&lt;p style=&quot;margin:0px;margin-top:4px;text-align:center;&quot;&gt;&lt;b&gt;UpdateOrderStatusDto&lt;/b&gt;&lt;/p&gt;&lt;hr size=&quot;1&quot;/&gt;&lt;p style=&quot;margin:0 0 0 4px;line-height:1.6;&quot;&gt;+ status: OrderStatus&lt;br/&gt;+ orderId: int&lt;/p&gt;" style="verticalAlign=top;align=left;overflow=fill;fontSize=14;fontFamily=Helvetica;html=1;rounded=0;shadow=0;comic=0;labelBackgroundColor=none;strokeWidth=1;" parent="1" vertex="1">
          <mxGeometry x="728.97" y="-3474" width="227" height="94" as="geometry" />
        </mxCell>
        <mxCell id="z_39Pu71ciSvkAZdyOoH-111" value="&lt;p style=&quot;margin:0px;margin-top:4px;text-align:center;&quot;&gt;&lt;b&gt;UpdateProductQuantityDto&lt;/b&gt;&lt;/p&gt;&lt;hr size=&quot;1&quot;/&gt;&lt;p style=&quot;margin:0 0 0 4px;line-height:1.6;&quot;&gt;+ id: int&lt;br/&gt;+ quantity: int&lt;/p&gt;" style="verticalAlign=top;align=left;overflow=fill;fontSize=14;fontFamily=Helvetica;html=1;rounded=0;shadow=0;comic=0;labelBackgroundColor=none;strokeWidth=1;" parent="1" vertex="1">
          <mxGeometry x="1215" y="-3536.5" width="260" height="94" as="geometry" />
        </mxCell>
        <mxCell id="z_39Pu71ciSvkAZdyOoH-112" value="" style="html=1;rounded=1;edgeStyle=orthogonalEdgeStyle;dashed=0;startArrow=diamondThinstartSize=12;endArrow=openThin;endSize=12;strokeColor=#595959;exitX=0.500;exitY=0.000;exitDx=0;exitDy=0;entryX=0.500;entryY=1.000;entryDx=0;entryDy=0;" parent="1" source="z_39Pu71ciSvkAZdyOoH-106" target="z_39Pu71ciSvkAZdyOoH-109" edge="1">
          <mxGeometry width="50" height="50" relative="1" as="geometry">
            <Array as="points">
              <mxPoint x="1321" y="-3210" />
            </Array>
          </mxGeometry>
        </mxCell>
        <mxCell id="ZYc5shfy5ZzfJf_vbFoQ-35" value="1" style="endArrow=open;html=1;endSize=12;startArrow=diamondThin;startSize=14;startFill=1;edgeStyle=orthogonalEdgeStyle;align=left;verticalAlign=bottom;rounded=0;exitX=0.997;exitY=0.54;exitDx=0;exitDy=0;exitPerimeter=0;entryX=0.005;entryY=0.598;entryDx=0;entryDy=0;entryPerimeter=0;" parent="1" source="z_39Pu71ciSvkAZdyOoH-25" target="z_39Pu71ciSvkAZdyOoH-34" edge="1">
          <mxGeometry x="-1" y="3" relative="1" as="geometry">
            <mxPoint x="640" y="-1394" as="sourcePoint" />
            <mxPoint x="800" y="-1394" as="targetPoint" />
            <Array as="points">
              <mxPoint x="730" y="-1394" />
            </Array>
          </mxGeometry>
        </mxCell>
        <mxCell id="ZYc5shfy5ZzfJf_vbFoQ-37" value="m" style="edgeLabel;html=1;align=center;verticalAlign=middle;resizable=0;points=[];" parent="ZYc5shfy5ZzfJf_vbFoQ-35" vertex="1" connectable="0">
          <mxGeometry x="-0.9923" y="15" relative="1" as="geometry">
            <mxPoint x="168" y="-2" as="offset" />
          </mxGeometry>
        </mxCell>
        <mxCell id="ZYc5shfy5ZzfJf_vbFoQ-43" value="1" style="endArrow=open;html=1;endSize=12;startArrow=diamondThin;startSize=14;startFill=1;edgeStyle=orthogonalEdgeStyle;align=left;verticalAlign=bottom;rounded=0;entryX=0.5;entryY=0;entryDx=0;entryDy=0;exitX=0;exitY=0.5;exitDx=0;exitDy=0;" parent="1" source="z_39Pu71ciSvkAZdyOoH-33" target="z_39Pu71ciSvkAZdyOoH-34" edge="1">
          <mxGeometry x="-1" y="3" relative="1" as="geometry">
            <mxPoint x="1100" y="-1624" as="sourcePoint" />
            <mxPoint x="1260" y="-1624" as="targetPoint" />
            <Array as="points">
              <mxPoint x="1470" y="-1971" />
              <mxPoint x="1470" y="-1614" />
              <mxPoint x="890" y="-1614" />
            </Array>
          </mxGeometry>
        </mxCell>
        <mxCell id="ZYc5shfy5ZzfJf_vbFoQ-44" value="m" style="edgeLabel;html=1;align=center;verticalAlign=middle;resizable=0;points=[];" parent="1" vertex="1" connectable="0">
          <mxGeometry x="829.9976545383065" y="-1383.9997067919817" as="geometry">
            <mxPoint x="49" y="-116" as="offset" />
          </mxGeometry>
        </mxCell>
        <mxCell id="ZYc5shfy5ZzfJf_vbFoQ-46" value="1" style="endArrow=open;html=1;endSize=12;startArrow=diamondThin;startSize=14;startFill=1;edgeStyle=orthogonalEdgeStyle;align=top;verticalAlign=top;rounded=0;entryX=0.167;entryY=1.004;entryDx=0;entryDy=0;entryPerimeter=0;exitX=0.25;exitY=0;exitDx=0;exitDy=0;" parent="1" source="z_39Pu71ciSvkAZdyOoH-35" target="z_39Pu71ciSvkAZdyOoH-33" edge="1">
          <mxGeometry x="-0.75" y="-10" relative="1" as="geometry">
            <mxPoint x="1900" y="-1584" as="sourcePoint" />
            <mxPoint x="2060" y="-1584" as="targetPoint" />
            <Array as="points">
              <mxPoint x="1671" y="-1784" />
              <mxPoint x="1587" y="-1784" />
            </Array>
            <mxPoint as="offset" />
          </mxGeometry>
        </mxCell>
        <mxCell id="ZYc5shfy5ZzfJf_vbFoQ-49" value="1" style="endArrow=open;html=1;endSize=12;startArrow=diamondThin;startSize=14;startFill=1;edgeStyle=orthogonalEdgeStyle;align=top;verticalAlign=top;rounded=0;exitX=0.25;exitY=0;exitDx=0;exitDy=0;entryX=0.889;entryY=0.997;entryDx=0;entryDy=0;entryPerimeter=0;" parent="1" target="z_39Pu71ciSvkAZdyOoH-33" edge="1">
          <mxGeometry x="-0.75" y="-10" relative="1" as="geometry">
            <mxPoint x="2144" y="-1743.75" as="sourcePoint" />
            <mxPoint x="2060" y="-1819.75" as="targetPoint" />
            <Array as="points">
              <mxPoint x="2144" y="-1774" />
              <mxPoint x="1772" y="-1774" />
            </Array>
            <mxPoint as="offset" />
          </mxGeometry>
        </mxCell>
        <mxCell id="ZYc5shfy5ZzfJf_vbFoQ-50" value="Use" style="endArrow=open;endSize=12;dashed=1;html=1;rounded=0;entryX=0.5;entryY=0;entryDx=0;entryDy=0;exitX=0.5;exitY=1;exitDx=0;exitDy=0;exitPerimeter=0;" parent="1" source="z_39Pu71ciSvkAZdyOoH-105" edge="1">
          <mxGeometry width="160" relative="1" as="geometry">
            <mxPoint x="3500" y="-2314" as="sourcePoint" />
            <mxPoint x="3510" y="-2055" as="targetPoint" />
          </mxGeometry>
        </mxCell>
        <mxCell id="ZYc5shfy5ZzfJf_vbFoQ-51" value="Use" style="endArrow=open;endSize=12;dashed=1;html=1;rounded=0;exitX=-0.004;exitY=0.545;exitDx=0;exitDy=0;exitPerimeter=0;entryX=0;entryY=0;entryDx=820;entryDy=337;entryPerimeter=0;fontStyle=1" parent="1" source="z_39Pu71ciSvkAZdyOoH-105" target="z_39Pu71ciSvkAZdyOoH-116" edge="1">
          <mxGeometry width="160" relative="1" as="geometry">
            <mxPoint x="2902.49" y="-2464.75" as="sourcePoint" />
            <mxPoint x="3330" y="-2370.63" as="targetPoint" />
          </mxGeometry>
        </mxCell>
        <mxCell id="ZYc5shfy5ZzfJf_vbFoQ-53" value="Use" style="endArrow=open;endSize=12;dashed=1;html=1;rounded=0;exitX=0.001;exitY=0.55;exitDx=0;exitDy=0;exitPerimeter=0;entryX=0;entryY=0;entryDx=980.0000000000001;entryDy=240.00000000000003;entryPerimeter=0;fontStyle=1" parent="1" source="z_39Pu71ciSvkAZdyOoH-105" target="z_39Pu71ciSvkAZdyOoH-24" edge="1">
          <mxGeometry width="160" relative="1" as="geometry">
            <mxPoint x="3246" y="-2505" as="sourcePoint" />
            <mxPoint x="1710" y="-2514" as="targetPoint" />
          </mxGeometry>
        </mxCell>
        <mxCell id="ZYc5shfy5ZzfJf_vbFoQ-54" value="Use" style="endArrow=open;endSize=12;dashed=1;html=1;rounded=0;exitX=0.223;exitY=1;exitDx=0;exitDy=0;exitPerimeter=0;entryX=0.479;entryY=0.059;entryDx=0;entryDy=0;entryPerimeter=0;" parent="1" source="z_39Pu71ciSvkAZdyOoH-70" target="z_39Pu71ciSvkAZdyOoH-6" edge="1">
          <mxGeometry width="160" relative="1" as="geometry">
            <mxPoint x="730" y="-1014" as="sourcePoint" />
            <mxPoint x="890" y="-1014" as="targetPoint" />
          </mxGeometry>
        </mxCell>
        <mxCell id="ZYc5shfy5ZzfJf_vbFoQ-57" value="Use" style="endArrow=open;endSize=12;dashed=1;html=1;rounded=0;exitX=0.761;exitY=1.004;exitDx=0;exitDy=0;exitPerimeter=0;entryX=0;entryY=0;entryDx=390;entryDy=14;entryPerimeter=0;" parent="1" source="z_39Pu71ciSvkAZdyOoH-70" target="z_39Pu71ciSvkAZdyOoH-13" edge="1">
          <mxGeometry width="160" relative="1" as="geometry">
            <mxPoint x="1342.5" y="-1093.5" as="sourcePoint" />
            <mxPoint x="1337.5" y="-833.5" as="targetPoint" />
          </mxGeometry>
        </mxCell>
        <mxCell id="ZYc5shfy5ZzfJf_vbFoQ-58" value="Use" style="endArrow=open;endSize=12;dashed=1;html=1;rounded=0;exitX=-0.004;exitY=0.562;exitDx=0;exitDy=0;exitPerimeter=0;entryX=0.594;entryY=0.007;entryDx=0;entryDy=0;entryPerimeter=0;fontStyle=1" parent="1" source="z_39Pu71ciSvkAZdyOoH-105" target="z_39Pu71ciSvkAZdyOoH-70" edge="1">
          <mxGeometry width="160" relative="1" as="geometry">
            <mxPoint x="3030" y="-2897" as="sourcePoint" />
            <mxPoint x="1582" y="-2264" as="targetPoint" />
          </mxGeometry>
        </mxCell>
        <mxCell id="ZYc5shfy5ZzfJf_vbFoQ-59" value="Use" style="endArrow=open;endSize=12;dashed=1;html=1;rounded=0;exitX=0.5;exitY=1;exitDx=0;exitDy=0;exitPerimeter=0;" parent="1" source="z_39Pu71ciSvkAZdyOoH-24" edge="1">
          <mxGeometry width="160" relative="1" as="geometry">
            <mxPoint x="740" y="-2264" as="sourcePoint" />
            <mxPoint x="1085" y="-2194" as="targetPoint" />
          </mxGeometry>
        </mxCell>
        <mxCell id="ZYc5shfy5ZzfJf_vbFoQ-60" value="Use" style="endArrow=open;endSize=12;dashed=1;html=1;rounded=0;entryX=0.5;entryY=1;entryDx=0;entryDy=0;entryPerimeter=0;exitX=0.498;exitY=0.032;exitDx=0;exitDy=0;exitPerimeter=0;" parent="1" source="z_39Pu71ciSvkAZdyOoH-24" target="z_39Pu71ciSvkAZdyOoH-116" edge="1">
          <mxGeometry width="160" relative="1" as="geometry">
            <mxPoint x="470" y="-2894" as="sourcePoint" />
            <mxPoint x="630" y="-2894" as="targetPoint" />
          </mxGeometry>
        </mxCell>
        <mxCell id="b16GQGhjPb-zxP0xf7DP-1" value="&lt;p style=&quot;margin:0px;margin-top:4px;text-align:center;&quot;&gt;&lt;b&gt;NotificationRepository&lt;/b&gt;&lt;/p&gt;&lt;hr size=&quot;1&quot;/&gt;&lt;p style=&quot;margin:0 0 0 4px;line-height:1.6;&quot;&gt;- notificationCount: Map&amp;lt;String, Integer&amp;gt;&lt;br/&gt;- emailCount: Map&amp;lt;String, Integer&amp;gt;&lt;br/&gt;- smsCount: Map&amp;lt;String, Integer&amp;gt;&lt;/p&gt;&lt;hr size=&quot;1&quot;/&gt;&lt;p style=&quot;margin:0 0 0 4px;line-height:1.6;&quot;&gt;- addToEmailCountMap(String): void&lt;br/&gt;+ addNotification(Notification): void&lt;br/&gt;- getMostOccurs(Map&amp;lt;String, Integer&amp;gt;): String&lt;br/&gt;+ getMostSentNotificationTemplate(): String&lt;br/&gt;+ getMostNotifiedEmail(): String&lt;br/&gt;- addToSmsCountMap(String): void&lt;br/&gt;+ getMostNotifiedPhoneNumber(): String&lt;br/&gt;- addToNotificationCountMap(String): void&lt;/p&gt;" style="verticalAlign=top;align=left;overflow=fill;fontSize=14;fontFamily=Helvetica;html=1;rounded=0;shadow=0;comic=0;labelBackgroundColor=none;strokeWidth=1;" parent="1" vertex="1">
          <mxGeometry x="2890" y="-2030" width="330" height="298" as="geometry" />
        </mxCell>
        <mxCell id="ozPsrXtaEzwnSQiqV_UA-1" value="&lt;p style=&quot;margin:0px;margin-top:4px;text-align:center;&quot;&gt;&lt;b&gt;DbContext&lt;/b&gt;&lt;/p&gt;&lt;hr size=&quot;1&quot;/&gt;&lt;p style=&quot;margin:0 0 0 4px;line-height:1.6;&quot;&gt;+ productRepository: ProductRepository&lt;br/&gt;+ notificationRepository: NotificationRepository&lt;br/&gt;+ userRepository: UserRepository&lt;br/&gt;+ categoryRepository: CategoryRepository&lt;br/&gt;+ orderRepository: OrderRepository&lt;/p&gt;&lt;hr size=&quot;1&quot;/&gt;&lt;p style=&quot;margin:0 0 0 4px;line-height:1.6;&quot;&gt;- initializeUserRepository(): UserRepository&lt;br/&gt;- initializeOrderRepository(): OrderRepository&lt;br/&gt;- initializeCategoryRepository(): CategoryRepository&lt;br/&gt;- initializeProductRepository(): ProductRepository&lt;/p&gt;" style="verticalAlign=top;align=left;overflow=fill;fontSize=14;fontFamily=Helvetica;html=1;rounded=0;shadow=0;comic=0;labelBackgroundColor=none;strokeWidth=1;" vertex="1" parent="1">
          <mxGeometry x="3340" y="-2050" width="346" height="259" as="geometry" />
        </mxCell>
        <mxCell id="ozPsrXtaEzwnSQiqV_UA-4" style="edgeStyle=orthogonalEdgeStyle;rounded=0;orthogonalLoop=1;jettySize=auto;html=1;entryX=1.004;entryY=0.534;entryDx=0;entryDy=0;entryPerimeter=0;" edge="1" parent="1" source="ozPsrXtaEzwnSQiqV_UA-1" target="b16GQGhjPb-zxP0xf7DP-1">
          <mxGeometry relative="1" as="geometry" />
        </mxCell>
        <mxCell id="ozPsrXtaEzwnSQiqV_UA-6" value="&lt;p style=&quot;margin:0px;margin-top:4px;text-align:center;&quot;&gt;&lt;b&gt;NotificationController&lt;/b&gt;&lt;/p&gt;&lt;hr size=&quot;1&quot;/&gt;&lt;p style=&quot;margin:0 0 0 4px;line-height:1.6;&quot;&gt;- notificationProcessor: NotificationProcessor&lt;br/&gt;- dbContext: DbContext&lt;/p&gt;&lt;hr size=&quot;1&quot;/&gt;&lt;p style=&quot;margin:0 0 0 4px;line-height:1.6;&quot;&gt;+ getMostNotifiedEmail(): String&lt;br/&gt;+ getNotificationQueueContent(): List&amp;lt;Notification&amp;gt;&lt;br/&gt;+ getMostNotifiedPhoneNumber(): String&lt;br/&gt;+ getMostSentTemplate(): String&lt;/p&gt;" style="verticalAlign=top;align=left;overflow=fill;fontSize=14;fontFamily=Helvetica;html=1;rounded=0;shadow=0;comic=0;labelBackgroundColor=none;strokeWidth=1;" vertex="1" parent="1">
          <mxGeometry x="3595.5" y="-3077.75" width="347" height="191" as="geometry" />
        </mxCell>
      </root>
    </mxGraphModel>
  </diagram>
</mxfile>
